<svg width="33" height="33" viewBox="0 0 33 33" fill="none" xmlns="http://www.w3.org/2000/svg">
<g opacity="0.92">
<path d="M27.5 0H5.5C2.46243 0 0 2.46243 0 5.5V27.5C0 30.5376 2.46243 33 5.5 33H27.5C30.5376 33 33 30.5376 33 27.5V5.5C33 2.46243 30.5376 0 27.5 0Z" fill="url(#paint0_linear_3_6794)"/>
<path d="M27.5 0H5.5C2.46243 0 0 2.46243 0 5.5V27.5C0 30.5376 2.46243 33 5.5 33H27.5C30.5376 33 33 30.5376 33 27.5V5.5C33 2.46243 30.5376 0 27.5 0Z" fill="white" fill-opacity="0.02"/>
<path d="M14.7134 17.5505C14.3653 17.5505 14.0832 17.8327 14.0832 18.1807C14.0832 18.5288 14.3653 18.811 14.7134 18.811H19.7551C20.103 18.811 20.3853 18.5288 20.3853 18.1807C20.3853 17.8327 20.103 17.5505 19.7551 17.5505H14.7134Z" fill="white"/>
<path fill-rule="evenodd" clip-rule="evenodd" d="M7.76226 7.9446C7.67785 7.6069 7.33568 7.4016 6.99802 7.486C6.66035 7.5704 6.45506 7.9126 6.53947 8.2503L7.42323 11.7853L8.2457 15.217C8.59542 16.6762 8.87069 17.8248 9.19737 18.7171C9.53241 19.6324 9.94335 20.3429 10.6026 20.8877C10.6595 20.9348 10.7175 20.9805 10.7764 21.0249C11.46 21.539 12.2468 21.773 13.2148 21.8854C14.1587 21.9952 15.3398 21.9952 16.8403 21.9952H17.3389C18.6372 21.9952 19.6592 21.9952 20.4825 21.9119C21.3259 21.8267 22.0197 21.6497 22.6441 21.2587C22.9403 21.0733 23.2155 20.8562 23.4649 20.6114C23.9906 20.0953 24.3245 19.4618 24.6039 18.6616C24.8768 17.8803 25.115 16.8865 25.4175 15.624L25.4351 15.5507C25.6176 14.7894 25.7679 14.1621 25.8261 13.6538C25.8864 13.1262 25.8617 12.624 25.5985 12.1654C25.4858 11.9692 25.345 11.7906 25.1805 11.6354C24.7959 11.2724 24.3132 11.1315 23.7861 11.0671C23.2783 11.0051 22.6331 11.0051 21.8503 11.0052H8.52742L7.76226 7.9446ZM9.4621 14.8843L8.83447 12.2657H21.8094C22.6434 12.2657 23.2111 12.2668 23.6334 12.3183C24.0454 12.3685 24.2144 12.4567 24.3154 12.5521C24.3902 12.6226 24.4542 12.7038 24.5053 12.7929C24.5745 12.9135 24.6209 13.0983 24.5738 13.5107C24.5255 13.9334 24.3942 14.4856 24.1999 15.2967C23.8875 16.6 23.6634 17.5319 23.414 18.246C23.1688 18.9481 22.9173 19.3827 22.5819 19.712C22.3976 19.8929 22.1942 20.0533 21.9752 20.1904C21.5769 20.4398 21.0956 20.583 20.3558 20.6579C19.6032 20.734 18.6447 20.7347 17.3045 20.7347H16.8804C15.3311 20.7347 14.2231 20.7337 13.3604 20.6334C12.5137 20.5351 11.9723 20.3472 11.534 20.0175C11.4905 19.9848 11.4476 19.951 11.4055 19.9162C10.9829 19.5669 10.674 19.0842 10.381 18.2838C10.0824 17.4682 9.82318 16.3909 9.4621 14.8843Z" fill="white"/>
<path d="M15.1114 24.0183C15.1114 24.5068 14.7154 24.9028 14.2268 24.9028C13.7383 24.9028 13.3423 24.5068 13.3423 24.0183C13.3423 23.5298 13.7383 23.1338 14.2268 23.1338C14.7154 23.1338 15.1114 23.5298 15.1114 24.0183Z" fill="white"/>
<path d="M20.4184 24.0183C20.4184 24.5068 20.0224 24.9028 19.5339 24.9028C19.0454 24.9028 18.6494 24.5068 18.6494 24.0183C18.6494 23.5298 19.0454 23.1338 19.5339 23.1338C20.0224 23.1338 20.4184 23.5298 20.4184 24.0183Z" fill="white"/>
</g>
<defs>
<linearGradient id="paint0_linear_3_6794" x1="16.5" y1="0" x2="16.5" y2="33" gradientUnits="userSpaceOnUse">
<stop offset="0.432692" stop-color="#F68605"/>
<stop offset="1" stop-color="#FF3300"/>
</linearGradient>
</defs>
</svg>
